# xmcd CD database file generated by Grip 2.9
# 
# Track frame offsets:
#       150
#       11380
#       19717
#       28342
#       36880
#       47282
#       56700
#       65925
#       73932
#       81877
#       92267
#       101190
#       110572
#       120020
#       132815
#       143090
# 
# Disc length: 2039 seconds
# 
# Revision: 3
# Processed by: cddbd v1.4b41PL1 Copyright (c) Steve Scherf et al.
# Submitted via: Grip 2.9
# 
DISCID=d407f510
DTITLE=Roger Miller - Greatest Hits
DYEAR=1900
DGENRE=
TTITLE0=King of the road
TTITLE1=Dang me
TTITLE2=You can't rollerskate in a buffalo herd
TTITLE3=England swings
TTITLE4=Engine engine #9
TTITLE5=Chug-a-lug
TTITLE6=One dying and one burying
TTITLE7=Do-wacka-do
TTITLE8=In the summertime (You don't want my love)
TTITLE9=Kansas city star
TTITLE10=Atta boy girl
TTITLE11=Swiss maid
TTITLE12=This town
TTITLE13=The last word in lonesome is me
TTITLE14=I'll pick up my heart and go home
TTITLE15=The good old days
EXTD=
EXTT0=
EXTT1=
EXTT2=
EXTT3=
EXTT4=
EXTT5=
EXTT6=
EXTT7=
EXTT8=
EXTT9=
EXTT10=
EXTT11=
EXTT12=
EXTT13=
EXTT14=
EXTT15=
PLAYORDER=
